<?xml version="1.0" encoding="UTF-8" standalone="no"?>
<!DOCTYPE svg PUBLIC "-//W3C//DTD SVG 1.1//EN"
 "http://www.w3.org/Graphics/SVG/1.1/DTD/svg11.dtd">
<!-- Generated by graphviz version 2.42.4 (0)
 -->
<!-- Title: EditionFlow Pages: 1 -->
<svg width="229pt" height="365pt"
 viewBox="0.00 0.00 228.92 364.92" xmlns="http://www.w3.org/2000/svg" xmlns:xlink="http://www.w3.org/1999/xlink">
<g id="graph0" class="graph" transform="scale(1 1) rotate(0) translate(12.96 351.96)">
<title>EditionFlow</title>
<polygon fill="#f6f8fa" stroke="transparent" points="-12.96,12.96 -12.96,-351.96 215.96,-351.96 215.96,12.96 -12.96,12.96"/>
<text text-anchor="middle" x="101.5" y="-325.4" font-family="DejaVu Sans" font-size="12.00" fill="#24344a">ORDINARY PREPARED PATH</text>
<!-- sources&#45;&gt;accepted -->
<g id="edge1" class="edge">
<title>sources&#45;&gt;accepted</title>
<path fill="none" stroke="#4e6987" stroke-width="1.5" d="M101.5,-273.74C101.5,-273.74 101.5,-266.6 101.5,-266.6"/>
<polygon fill="#4e6987" stroke="#4e6987" stroke-width="1.5" points="103.78,-266.6 101.5,-260.1 99.23,-266.6 103.78,-266.6"/>
</g>
<!-- accepted&#45;&gt;frozen -->
<g id="edge2" class="edge">
<title>accepted&#45;&gt;frozen</title>
<path fill="none" stroke="#4e6987" stroke-width="1.5" d="M101.5,-215.74C101.5,-215.74 101.5,-208.6 101.5,-208.6"/>
<polygon fill="#4e6987" stroke="#4e6987" stroke-width="1.5" points="103.78,-208.6 101.5,-202.1 99.23,-208.6 103.78,-208.6"/>
</g>
<!-- frozen&#45;&gt;delivery -->
<g id="edge3" class="edge">
<title>frozen&#45;&gt;delivery</title>
<path fill="none" stroke="#4e6987" stroke-width="1.5" d="M101.5,-157.74C101.5,-157.74 101.5,-150.6 101.5,-150.6"/>
<polygon fill="#4e6987" stroke="#4e6987" stroke-width="1.5" points="103.78,-150.6 101.5,-144.1 99.23,-150.6 103.78,-150.6"/>
</g>
<!-- delivery&#45;&gt;feedback -->
<g id="edge4" class="edge">
<title>delivery&#45;&gt;feedback</title>
<path fill="none" stroke="#769184" stroke-width="1.5" stroke-dasharray="5,2" d="M101.5,-99.97C101.5,-99.97 101.5,-91.71 101.5,-91.71"/>
<polygon fill="#769184" stroke="#769184" stroke-width="1.5" points="103.43,-91.71 101.5,-86.21 99.58,-91.71 103.43,-91.71"/>
</g>
<!-- feedback&#45;&gt;investigation -->
<!-- sources -->
<g id="node1" class="node">
<title>sources</title>
<path fill="#ffffff" stroke="#bdcad8" stroke-width="1.1" d="M190.5,-318C190.5,-318 12.5,-318 12.5,-318 6.5,-318 0.5,-312 0.5,-306 0.5,-306 0.5,-286 0.5,-286 0.5,-280 6.5,-274 12.5,-274 12.5,-274 190.5,-274 190.5,-274 196.5,-274 202.5,-280 202.5,-286 202.5,-286 202.5,-306 202.5,-306 202.5,-312 196.5,-318 190.5,-318"/>
<text text-anchor="start" x="69" y="-302" font-family="DejaVu Sans" font-size="10.00" fill="#52677f">01 · COLLECT</text>
<text text-anchor="start" x="14" y="-287.2" font-family="DejaVu Sans" font-weight="bold" font-size="16.00" fill="#152b44">RSS / Atom sources</text>
</g>
<!-- accepted -->
<g id="node2" class="node">
<title>accepted</title>
<path fill="#ffffff" stroke="#bdcad8" stroke-width="1.1" d="M190.5,-260C190.5,-260 12.5,-260 12.5,-260 6.5,-260 0.5,-254 0.5,-248 0.5,-248 0.5,-228 0.5,-228 0.5,-222 6.5,-216 12.5,-216 12.5,-216 190.5,-216 190.5,-216 196.5,-216 202.5,-222 202.5,-228 202.5,-228 202.5,-248 202.5,-248 202.5,-254 196.5,-260 190.5,-260"/>
<text text-anchor="start" x="53" y="-244" font-family="DejaVu Sans" font-size="10.00" fill="#52677f">02 · SELECT &amp; SAVE</text>
<text text-anchor="start" x="34.5" y="-229.2" font-family="DejaVu Sans" font-weight="bold" font-size="16.00" fill="#152b44">Accepted work</text>
</g>
<!-- frozen -->
<g id="node3" class="node">
<title>frozen</title>
<path fill="#e7f2ee" stroke="#85ae9a" stroke-width="1.1" d="M190.5,-202C190.5,-202 12.5,-202 12.5,-202 6.5,-202 0.5,-196 0.5,-190 0.5,-190 0.5,-170 0.5,-170 0.5,-164 6.5,-158 12.5,-158 12.5,-158 190.5,-158 190.5,-158 196.5,-158 202.5,-164 202.5,-170 202.5,-170 202.5,-190 202.5,-190 202.5,-196 196.5,-202 190.5,-202"/>
<text text-anchor="start" x="72" y="-186" font-family="DejaVu Sans" font-size="10.00" fill="#355e4d">03 · FREEZE</text>
<text text-anchor="start" x="40" y="-171.2" font-family="DejaVu Sans" font-weight="bold" font-size="16.00" fill="#152b44">Ready edition</text>
</g>
<!-- delivery -->
<g id="node4" class="node">
<title>delivery</title>
<path fill="#173f4c" stroke="#173f4c" stroke-width="1.1" d="M190.5,-144C190.5,-144 12.5,-144 12.5,-144 6.5,-144 0.5,-138 0.5,-132 0.5,-132 0.5,-112 0.5,-112 0.5,-106 6.5,-100 12.5,-100 12.5,-100 190.5,-100 190.5,-100 196.5,-100 202.5,-106 202.5,-112 202.5,-112 202.5,-132 202.5,-132 202.5,-138 196.5,-144 190.5,-144"/>
<text text-anchor="start" x="35.5" y="-128" font-family="DejaVu Sans" font-size="10.00" fill="#c0ded9">04 · PERSIST, CLAIM, SEND</text>
<text text-anchor="start" x="15.5" y="-113.2" font-family="DejaVu Sans" font-weight="bold" font-size="16.00" fill="#ffffff">Delivery + receipts</text>
</g>
<!-- feedback -->
<g id="node5" class="node">
<title>feedback</title>
<path fill="#ffffff" stroke="transparent" stroke-width="1.1" d="M195,-86C195,-86 8,-86 8,-86 4,-86 0,-82 0,-78 0,-78 0,-70 0,-70 0,-66 4,-62 8,-62 8,-62 195,-62 195,-62 199,-62 203,-66 203,-70 203,-70 203,-78 203,-78 203,-82 199,-86 195,-86"/>
<text text-anchor="start" x="0" y="-77.4" font-family="DejaVu Sans" font-weight="bold" font-size="12.00" fill="#152b44">Feedback + approved sources</text>
<text text-anchor="start" x="25" y="-65.4" font-family="DejaVu Sans" font-size="12.00" fill="#152b44">inform future preparation</text>
</g>
<!-- investigation -->
<g id="node6" class="node">
<title>investigation</title>
<path fill="#fff8ec" stroke="#c8a875" stroke-width="1.1" stroke-dasharray="5,2" d="M190.5,-48C190.5,-48 12.5,-48 12.5,-48 6.5,-48 0.5,-42 0.5,-36 0.5,-36 0.5,-12 0.5,-12 0.5,-6 6.5,0 12.5,0 12.5,0 190.5,0 190.5,0 196.5,0 202.5,-6 202.5,-12 202.5,-12 202.5,-36 202.5,-36 202.5,-42 196.5,-48 190.5,-48"/>
<text text-anchor="start" x="26.5" y="-32.4" font-family="DejaVu Sans" font-weight="bold" font-size="12.00" fill="#152b44">Optional investigation</text>
<text text-anchor="start" x="9.5" y="-20.4" font-family="DejaVu Sans" font-size="12.00" fill="#152b44">Independent counter&#45;evidence</text>
<text text-anchor="start" x="17" y="-10" font-family="DejaVu Sans" font-size="10.00" fill="#152b44">After confirmed, persisted delivery</text>
</g>
</g>
</svg>
